<svg width="401.998" height="401.998" xmlns="http://www.w3.org/2000/svg" xmlns:svg="http://www.w3.org/2000/svg">
 <g>
  <title>Layer 1</title>
  <g opacity="0.95" id="svg_1">
   <path stroke="#070202" fill="#aaaaff" id="svg_2" d="m331.62,92.076c-1.711,-1.713 -3.901,-2.568 -6.563,-2.568l-48.82,0c-3.238,-15.793 -9.329,-29.502 -18.274,-41.112l66.52,0c2.669,0 4.853,-0.856 6.57,-2.565c1.704,-1.712 2.56,-3.903 2.56,-6.567l0,-29.128c0,-2.666 -0.855,-4.853 -2.56,-6.567c-1.719,-1.71 -3.903,-2.569 -6.572,-2.569l-237.54,0c-2.666,0 -4.853,0.859 -6.567,2.568c-1.709,1.714 -2.568,3.901 -2.568,6.567l0,37.972c0,2.474 0.904,4.615 2.712,6.423s3.949,2.712 6.423,2.712l41.399,0c40.159,0 65.665,10.751 76.513,32.261l-117.912,0c-2.666,0 -4.856,0.855 -6.567,2.568c-1.709,1.715 -2.568,3.901 -2.568,6.567l0,29.124c0,2.664 0.855,4.854 2.568,6.563c1.714,1.715 3.905,2.568 6.567,2.568l121.915,0c-4.188,15.612 -13.944,27.506 -29.268,35.691c-15.325,8.186 -35.544,12.279 -60.67,12.279l-31.977,0c-2.474,0 -4.615,0.905 -6.423,2.712c-1.809,1.809 -2.712,3.951 -2.712,6.423l0,36.263c0,2.478 0.855,4.571 2.568,6.282c36.543,38.828 83.939,93.165 142.182,163.025c1.715,2.286 4.093,3.426 7.139,3.426l55.672,0c4.001,0 6.763,-1.708 8.281,-5.141c1.903,-3.426 1.53,-6.662 -1.143,-9.708c-55.572,-68.143 -99.258,-119.153 -131.045,-153.032c32.358,-3.806 58.625,-14.277 78.802,-31.404c20.174,-17.129 32.449,-39.403 36.83,-66.811l47.965,0c2.662,0 4.853,-0.854 6.563,-2.568c1.715,-1.709 2.573,-3.899 2.573,-6.563l0,-29.121c0,-2.669 -0.858,-4.856 -2.573,-6.57z"/>
  </g>
  <g id="svg_3"/>
  <g id="svg_4"/>
  <g id="svg_5"/>
  <g id="svg_6"/>
  <g id="svg_7"/>
  <g id="svg_8"/>
  <g id="svg_9"/>
  <g id="svg_10"/>
  <g id="svg_11"/>
  <g id="svg_12"/>
  <g id="svg_13"/>
  <g id="svg_14"/>
  <g id="svg_15"/>
  <g id="svg_16"/>
  <g id="svg_17"/>
 </g>
</svg>
